
<svg version="1.0" xmlns="http://www.w3.org/2000/svg"
 width="512.000000pt" height="512.000000pt" viewBox="0 0 512.000000 512.000000"
 preserveAspectRatio="xMidYMid meet">

<g transform="translate(0.000000,512.000000) scale(0.100000,-0.100000)"
fill="#000000" stroke="none">
<path d="M4327 5003 c-8 -10 -105 -141 -215 -290 -158 -215 -199 -277 -195
-295 10 -41 31 -48 135 -48 l98 0 0 -226 0 -226 -72 78 c-304 325 -735 534
-1188 574 -63 5 -405 10 -760 10 -355 0 -810 3 -1012 7 l-368 6 0 96 c0 53 -4
102 -8 108 -4 7 -21 15 -37 18 -27 5 -59 -16 -295 -190 -311 -230 -318 -235
-303 -267 6 -13 136 -118 289 -233 287 -216 311 -229 342 -188 8 11 12 52 12
115 l0 98 234 0 234 0 -107 -107 c-115 -115 -201 -224 -275 -345 -105 -173
-194 -395 -231 -578 -50 -244 -49 -226 -45 -915 1 -357 -1 -833 -5 -1057 l-7
-408 -92 0 c-84 0 -95 -2 -114 -23 -12 -13 -22 -30 -22 -38 0 -15 374 -528
415 -569 24 -23 27 -24 51 -10 14 8 115 137 224 285 255 345 257 355 66 355
l-96 0 0 232 0 232 108 -108 c316 -318 695 -496 1142 -536 64 -5 419 -10 796
-10 374 0 830 -3 1012 -7 l332 -6 0 -91 c0 -101 14 -136 53 -136 12 0 63 31
114 68 489 358 489 358 479 390 -8 23 -23 35 -343 270 -183 134 -237 169 -255
165 -41 -10 -48 -31 -48 -135 l0 -98 -226 0 -226 0 81 76 c317 298 519 721
560 1174 7 67 11 400 11 801 0 377 3 835 7 1017 l6 332 98 0 c104 0 129 10
129 51 0 18 -399 575 -424 591 -19 13 -42 9 -59 -9z m197 -327 c75 -103 136
-192 136 -197 0 -4 -37 -9 -82 -11 l-83 -3 -7 -40 c-4 -22 -7 -474 -8 -1005 0
-531 -5 -1037 -10 -1125 -19 -341 -111 -620 -294 -894 -78 -118 -241 -292
-350 -376 l-72 -55 -220 0 -219 0 101 54 c158 83 249 150 384 286 224 223 353
461 423 779 20 94 21 121 24 1225 3 845 1 1132 -8 1142 -8 10 -34 14 -85 14
-41 0 -74 3 -74 6 0 6 252 357 278 387 9 9 19 14 23 10 3 -5 68 -93 143 -197z
m-3872 -98 l3 -83 40 -7 c22 -4 472 -7 1000 -8 1017 -1 1210 -6 1374 -40 405
-82 804 -329 1043 -646 l38 -51 -2 -219 -3 -219 -49 95 c-209 406 -545 682
-976 800 -177 48 -228 50 -1374 50 -820 0 -1075 -3 -1084 -12 -7 -7 -12 -43
-12 -90 0 -43 -2 -78 -5 -78 -16 0 -406 303 -399 310 25 23 387 280 395 280 4
0 9 -37 11 -82z m1063 -486 c-163 -84 -256 -153 -391 -287 -219 -218 -342
-447 -415 -770 l-23 -100 -3 -1136 c-4 -1044 -2 -1137 13 -1150 9 -7 49 -16
89 -19 l73 -5 -142 -197 c-77 -108 -144 -196 -148 -195 -4 1 -71 90 -149 197
l-141 195 76 5 c42 4 82 12 88 18 10 10 14 255 19 1125 7 1208 6 1191 65 1406
52 191 150 396 271 567 80 113 238 280 338 358 l60 46 215 0 215 -1 -110 -57z
m1286 30 c299 -62 550 -200 756 -415 191 -200 314 -438 370 -714 26 -128 26
-715 1 -849 -107 -565 -526 -1006 -1088 -1145 -91 -23 -111 -24 -445 -24 -300
0 -364 3 -450 19 -555 104 -982 503 -1120 1047 -38 150 -48 282 -42 584 4 224
8 289 26 378 111 552 521 980 1061 1109 130 31 229 37 545 33 241 -3 306 -7
386 -23z m-1842 -2615 c176 -254 473 -472 774 -566 213 -67 148 -64 1386 -68
841 -3 1127 -1 1137 8 10 8 14 35 14 90 0 44 3 79 6 79 7 0 392 -279 398 -289
5 -7 -358 -275 -389 -287 -13 -5 -15 6 -15 75 0 78 -1 82 -26 91 -16 6 -382
10 -972 10 -1039 1 -1261 7 -1422 40 -221 45 -436 135 -626 262 -115 77 -288
236 -376 346 l-58 73 0 217 0 217 58 -110 c32 -61 82 -145 111 -188z"/>
<path d="M2172 3770 c-125 -47 -260 -118 -274 -143 -6 -13 -4 -38 6 -81 20
-78 20 -109 1 -173 -19 -63 -56 -97 -132 -119 -56 -16 -137 -13 -192 8 -46 17
-67 2 -114 -79 -51 -90 -88 -180 -112 -272 -20 -79 -12 -102 44 -131 138 -70
191 -196 128 -303 -26 -44 -60 -74 -147 -131 -31 -20 -35 -27 -33 -63 4 -87
131 -381 176 -404 13 -7 37 -6 81 5 77 20 109 20 172 1 108 -32 156 -151 119
-297 -12 -49 -14 -72 -6 -87 15 -28 254 -145 339 -165 83 -21 102 -15 132 44
103 202 317 203 420 1 10 -21 34 -47 52 -58 l34 -20 69 24 c39 13 121 48 183
79 126 62 142 80 123 135 -21 61 -23 160 -4 213 37 102 146 145 282 112 52
-13 75 -14 90 -7 27 15 136 240 161 334 24 87 21 110 -18 134 -61 38 -113 87
-138 128 -65 112 -10 245 132 318 58 30 61 39 36 136 -25 99 -134 326 -163
342 -15 8 -37 6 -83 -5 -78 -20 -109 -20 -173 -1 -62 18 -97 56 -118 127 -19
65 -19 99 0 172 9 32 13 67 10 77 -12 36 -244 151 -362 179 -63 14 -85 5 -113
-50 -64 -126 -191 -186 -289 -136 -42 22 -105 86 -127 128 -24 48 -44 68 -68
68 -12 0 -67 -18 -124 -40z m112 -138 c22 -42 111 -121 164 -145 72 -33 179
-31 254 6 54 27 168 134 168 159 0 20 84 -2 178 -48 l93 -45 -8 -47 c-38 -224
75 -390 270 -395 34 -1 85 1 114 6 l52 8 29 -63 c17 -35 40 -96 53 -136 l23
-73 -34 -27 c-63 -47 -112 -105 -139 -161 -65 -140 -11 -306 134 -408 30 -21
30 -21 17 -70 -7 -26 -31 -88 -54 -136 l-42 -88 -45 8 c-170 29 -304 -30 -361
-160 -23 -52 -30 -139 -17 -223 l7 -52 -106 -46 c-116 -51 -164 -65 -164 -48
0 25 -114 132 -168 159 -81 40 -183 40 -263 0 -52 -25 -138 -105 -165 -152
-10 -18 -15 -19 -60 -7 -27 7 -86 31 -132 53 l-83 40 8 47 c38 224 -75 390
-270 395 -34 1 -85 -1 -114 -6 l-52 -8 -29 63 c-17 35 -40 96 -53 136 -23 73
-23 74 -4 85 47 26 134 121 156 170 35 78 33 183 -4 258 -25 52 -106 141 -152
166 -18 11 -19 15 -7 59 16 58 67 182 86 207 13 16 20 17 76 7 69 -13 132 -6
206 21 125 47 193 189 164 348 -10 57 -10 64 7 76 24 19 214 94 235 95 10 0
24 -13 32 -28z"/>
<path d="M2410 3134 c-102 -27 -180 -73 -265 -159 -124 -123 -175 -245 -175
-415 0 -158 51 -288 159 -403 117 -124 262 -187 431 -187 171 0 294 52 415
174 124 124 175 247 175 416 0 169 -51 292 -175 416 -86 87 -161 131 -270 159
-74 19 -222 18 -295 -1z m265 -99 c176 -46 314 -184 360 -360 66 -253 -98
-521 -360 -590 -339 -88 -667 230 -594 577 16 78 74 180 136 242 124 123 297
172 458 131z"/>
</g>
</svg>
